<svg width="128" height="111" viewBox="0 0 128 111" fill="none" xmlns="http://www.w3.org/2000/svg">
<path d="M0 76.6599C0.0414633 80.5351 3.16951 83.6673 7.04268 83.7124H120.957C124.83 83.6673 127.959 80.5351 128 76.6599V70.5933H0V76.6599Z" fill="white"/>
<path d="M120.957 0H7.04268C3.21341 0 0 2.96132 0 6.7926V70.5933H128V6.7926C128 2.96132 124.787 0 120.957 0Z" fill="white"/>
<path d="M93.7049 104.641H79.2976V83.7124H48.7024V104.641H35.9366C34.2122 104.641 32.8146 106.039 32.8146 107.764C32.8146 109.489 34.2122 110.888 35.9366 110.888H93.7049C95.4293 110.888 96.8268 109.489 96.8268 107.764C96.8268 106.039 95.4293 104.641 93.7049 104.641Z" fill="white"/>
</svg>
